<?xml version="1.0" encoding="utf-8"?>
<!-- Generator: Adobe Illustrator 25.4.1, SVG Export Plug-In . SVG Version: 6.00 Build 0)  -->
<svg version="1.1" id="Layer_1" xmlns="http://www.w3.org/2000/svg" xmlns:xlink="http://www.w3.org/1999/xlink" x="0px" y="0px"
	 viewBox="0 0 1112 766" style="enable-background:new 0 0 1112 766;" xml:space="preserve">
<style type="text/css">
	.st0{fill:none;stroke:#FFD815;stroke-miterlimit:10;}
	.st1{fill:#FFFFFF;}
</style>
<g>
	<g>
		<g>
			<g>
				<g>
					<path class="st0" d="M572.06,394.97c-12.32-6.86-13.06-24.34-1.54-32.48c25.92-18.31,42.86-48.5,42.86-82.65
						c0-49.31-35.3-90.4-82.01-99.34c-9.93-1.9-19.15,5.78-19.15,15.9V379.5v1.49v227.73c0,9.95,8.89,17.48,18.72,15.97
						c59.21-9.02,104.57-60.16,104.57-121.89C635.53,456.42,609.91,416.02,572.06,394.97z"/>
				</g>
			</g>
		</g>
		<g>
			<g>
				<g>
					<path class="st0" d="M483.32,601.77c-3.77,0-6.83-3.09-6.83-6.88v-446.9c0-3.84,3.14-6.9,6.99-6.88
						c59.25,0.2,107.39,48.47,107.39,107.77c0,34.78-16.9,67.55-45.25,87.76c-3.99,2.86-6.36,7.65-5.69,12.52
						c0.54,3.88,2.75,7.15,6.22,9.07l0,0C587.38,381.17,613,424.7,613,471.84C613,543.42,554.85,601.65,483.32,601.77z
						 M489.69,160.53v421.68c0,3.36,2.91,6,6.25,5.64c58.31-6.43,103.83-55.99,103.83-116c0-42.34-23.01-81.45-60.07-102.06l0,0
						c-7.72-4.29-12.63-12.14-13.1-21.02c-0.49-8.98,3.61-17.44,10.96-22.63c25.1-17.71,40.06-46.6,40.06-77.25
						c0-47.86-35.73-87.52-81.92-93.7C492.51,154.75,489.69,157.3,489.69,160.53z"/>
				</g>
			</g>
		</g>
	</g>
	<g>
		<g>
			<g>
				<path class="st1" d="M162.4,388.74c3.69-4.11,5.79-9.16,5.79-14.32c0-10.85-5.16-19.38-21.9-19.38H81.42v73.71h67.4
					c16.74,0,24.01-9.06,24.01-21.48C172.83,398.74,168.72,392.63,162.4,388.74z M100.38,368.73h39.07c5.16,0,9.79,0,9.79,7.58
					c0,7.69-4.63,7.69-9.69,7.69h-0.11h-39.07v-15.27H100.38z M144.19,414.11h-43.81v-15.59h43.81c5.05,0,9.69,0,9.69,7.79
					C153.87,414.11,149.24,414.11,144.19,414.11z"/>
				<path class="st1" d="M376.09,364.62c-15.06,0-27.27,4.95-36.12,11.9v-10.85h-18.01l0.11,63.08h18.01l-0.11-35.8
					c5.58-6.53,18.64-12.74,30.75-12.74c14.85,0,19.27,6.84,19.27,20.01l0.11,28.54h18.11l0.11-35.38
					C408.11,370.52,392.63,364.62,376.09,364.62z"/>
				<path class="st1" d="M230.01,364.62c-11.58,0-22.54,3.26-31.8,11.58v-10.53H180.2v63.08h18.01v-38.23
					c10.65-8.29,21.9-10.71,31.8-10.84V364.62z"/>
				<path class="st1" d="M273.15,364.62h-34.4v15.06h34.4c8.56,0.07,22.7,1.35,22.7,12.74c-8.11-2.74-17.9-4.42-28.54-4.42
					c-19.69,0-37.38,5.05-37.38,21.17c0,14.01,10.85,19.59,28.22,19.59c0.13,0,0.26-0.01,0.39-0.01v0.01h55.42v-1.05v-12.3v-18.97
					C313.75,372.95,299.03,364.63,273.15,364.62z M295.85,415.4h-37.31c-6.59-0.31-10.6-1.63-10.6-6.97c0-6.32,8.11-8.64,21.59-8.64
					c11.48,0,20.01,1.79,26.33,3.79v11.82H295.85z"/>
				<path class="st1" d="M482.46,343.45v31.91c-6.74-7.06-17.59-10.74-30.96-10.74c-19.9,0-36.96,8.42-36.96,32.12
					c0,23.69,17.06,32.01,36.96,32.01c0.81,0,48.97,0,48.97,0v-85.3H482.46z M482.46,413.6h-28.57c-13.8-0.69-21.24-5.6-21.24-16.86
					c0-12.32,8.74-17.06,24.85-17.06s24.96,4.74,24.96,17.06V413.6z"/>
			</g>
			<g>
				<path class="st1" d="M601.82,389.77c3.79-4.11,5.79-9.16,5.79-14.53c0-10.74-5.16-19.48-21.9-19.48h-64.97v73.71h67.4
					c16.74,0,24.01-8.95,24.01-21.38C612.14,399.35,608.14,393.35,601.82,389.77z M537.58,368.39h42.54c5.69,0,10.64,0,10.64,8.53
					s-4.95,8.53-10.53,8.53h-0.11h-42.54V368.39z M584.65,416.19h-47.07v-17.59h47.07c5.69,0,10.64,0,10.64,8.85
					C595.29,416.19,590.34,416.19,584.65,416.19z"/>
				<path class="st1" d="M689.54,401.55c-5.69,7.06-20.01,14.01-33.28,14.01c-15.8,0-20.32-7.48-20.32-21.17v-27.7h-16.32
					l-0.21,33.7c0.21,22.85,15.59,29.06,32.65,29.06c15.48,0,28.43-5.06,37.49-12.53v11.48h16.22v-61.71h-16.22v34.86H689.54z"/>
				<rect x="714.6" y="345.23" class="st1" width="16.22" height="15.37"/>
				<rect x="714.6" y="367.76" class="st1" width="16.22" height="61.71"/>
				<rect x="740.3" y="345.23" class="st1" width="16.22" height="84.25"/>
				<path class="st1" d="M968.92,376.91v-10.53h-18.01v63.08h18.01v-38.23c10.65-8.29,21.9-10.71,31.8-10.84v-15.06
					C989.14,365.33,978.18,368.6,968.92,376.91z"/>
				<path class="st1" d="M832.02,376.07c-6.74-7.06-17.59-10.74-30.96-10.74c-19.9,0-36.96,8.42-36.96,32.12
					c0,23.69,17.06,32.01,36.96,32.01c0.81,0,48.97,0,48.97,0v-1.05v-14.1v-70.15h-18.01V376.07z M832.02,414.31h-28.57
					c-13.8-0.69-21.24-5.6-21.24-16.86c0-12.32,8.74-17.06,24.85-17.06s24.96,4.74,24.96,17.06V414.31z"/>
				<path class="st1" d="M874.66,401.77h68.46c0-28.33-19.38-36.12-42.33-36.12h-42.97v31.91c0,22.64,18.64,31.91,41.91,31.91
					c22.22,0,38.02-7.37,42.33-22.85h-16.22c-4.32,6.84-12.85,9.58-26.12,9.58c-13.25,0-23.19-3.51-25.32-14.12
					C874.38,401.91,874.5,401.77,874.66,401.77z M874.36,390.61v-12.31h26.42v-0.01c12.48,0.02,21.91,2.97,24.96,12.32
					L874.36,390.61L874.36,390.61z"/>
			</g>
			<g>
				<path class="st1" d="M1024.28,347.06c0-2.09-1.46-3.44-3.59-3.44h-7.37V353h2.41v-2.51h3.89l1.51,2.51h2.84l-1.73-2.79
					C1023.5,349.71,1024.28,348.58,1024.28,347.06z M1020.02,348.46h-4.29v-2.83h4.29c0.72,0,1.85,0,1.85,1.42
					C1021.87,348.46,1020.74,348.46,1020.02,348.46z"/>
				<path class="st1" d="M1018.8,336.52c-6.49,0-11.78,5.28-11.78,11.78c0,6.49,5.28,11.78,11.78,11.78s11.78-5.28,11.78-11.78
					S1025.29,336.52,1018.8,336.52z M1018.8,357.56c-5.1,0-9.25-4.15-9.25-9.25s4.15-9.25,9.25-9.25s9.25,4.15,9.25,9.25
					S1023.9,357.56,1018.8,357.56z"/>
			</g>
		</g>
	</g>
</g>
</svg>
